<svg xmlns="http://www.w3.org/2000/svg" viewBox="0 0 24 24"><path d="M 5.9941406 2 L 5.9941406 4 L 3.9960938 4 A 2.004 2.004 0 0 0 2 6 L 2.0644531 19.761719 C 2.0644531 20.865052 3.0203802 22 4.1230469 22 L 20.097656 22 C 21.20099 22 22 20.979052 22 19.761719 C 22 19.372385 21.96875 7.3590312 21.96875 6.7070312 C 21.96875 4.6250312 21.687943 4 17.974609 4 L 17.974609 2 L 15.976562 2 L 15.976562 4 L 7.9902344 4 L 7.9902344 2 L 5.9941406 2 z M 5.1660156 5.703125 L 6.1660156 5.703125 L 6.1660156 7.9257812 L 8.1113281 7.9257812 L 8.1113281 5.703125 L 15.888672 5.703125 L 15.888672 7.9257812 L 17.833984 7.9257812 L 17.833984 5.703125 L 18.804688 5.703125 C 19.341354 5.703125 19.777344 6.2011198 19.777344 6.8144531 L 19.777344 10.148438 L 4.2226562 10.148438 L 4.2226562 6.7832031 C 4.2226562 6.1878698 4.645349 5.703125 5.1660156 5.703125 z M 4.2226562 11.628906 L 19.777344 11.628906 L 19.777344 18.759766 C 19.777344 19.319766 19.339354 19.777344 18.804688 19.777344 L 5.1953125 19.777344 C 4.6586458 19.777344 4.2226562 19.321766 4.2226562 18.759766 L 4.2226562 11.628906 z"/></svg>