<svg xmlns="http://www.w3.org/2000/svg" viewBox="0 0 24 24"><path d="M 5.3867188 2.0585938 C 4.4122802 2.1073157 3.7625742 2.5225031 3.1621094 3.3046875 C 1.5398009 5.422116 1.7833655 8.2787118 2.875 10.601562 C 4.4196167 13.885684 7.0686154 16.978919 9.8984375 18.980469 C 11.823612 20.342049 14.360655 21.578373 16.691406 21.789062 C 18.397304 21.944384 20.785617 21.019227 21.396484 19.167969 C 21.396484 19.167969 21.396484 19.166016 21.396484 19.166016 C 21.935059 17.531856 22.000826 16.744174 20.587891 15.984375 C 19.674025 15.491889 18.746382 14.930791 17.789062 14.541016 C 15.94158 13.786484 16.066216 16.01599 14.744141 16.740234 C 13.885581 17.210335 12.676362 16.359453 11.925781 15.886719 A 13.306353 13.306353 0 0 1 8.4921875 12.720703 C 7.999701 12.079417 6.9093347 10.87399 7.0410156 9.9746094 C 7.2543386 8.5485055 8.9442063 8.4752405 8.4609375 6.7304688 C 8.202843 5.7955346 7.7428051 4.8766235 7.3964844 3.9746094 C 6.931651 2.7684126 6.7403982 1.9940701 5.3867188 2.0585938 z"/></svg>