<svg xmlns="http://www.w3.org/2000/svg" viewBox="0 0 24 24"><path d="M 7.0019531 4.0019531 L 7.0019531 8 L 2 8 L 2 19.998047 L 6.0019531 19.998047 L 6.0019531 18 L 4 18 L 4 10 L 20 10 L 20 18 L 17.998047 18 L 17.998047 19.998047 L 22 19.998047 L 22 8 L 21 8 L 21 6 L 19 6 L 19 8 L 17 8 L 17 4.0019531 L 7.0019531 4.0019531 z M 12 11.498047 C 9.7912057 11.498047 8 13.291235 8 15.5 C 8 17.708765 9.7912056 19.5 12 19.5 C 14.208765 19.5 16 17.708765 16 15.5 C 16 13.291235 14.208765 11.498047 12 11.498047 z M 12 13.5 C 13.102919 13.5 14 14.397081 14 15.5 C 14 16.602919 13.102919 17.498047 12 17.498047 C 10.8971 17.498047 10 16.602919 10 15.5 C 10 14.397081 10.8971 13.5 12 13.5 z"/></svg>