<svg xmlns="http://www.w3.org/2000/svg" viewBox="0 0 24 24"><path d="M 2.8945312 2.0449219 A 0.87248906 0.87248906 0 0 0 2.2714844 2.3164062 A 0.88185807 0.88185807 0 0 0 2.2714844 3.5917969 L 10.6875 12.044922 L 2.2714844 20.5 A 0.88185807 0.88185807 0 0 0 2.2714844 21.773438 C 2.4518378 21.954962 2.812616 21.955078 2.9941406 21.955078 C 3.1744941 21.955078 3.5390625 21.954962 3.5390625 21.773438 L 11.955078 13.320312 L 20.369141 21.773438 C 20.550665 21.954962 20.914177 21.955078 21.095703 21.955078 C 21.276057 21.955078 21.636719 21.954962 21.636719 21.773438 C 21.999768 21.409217 21.999768 20.86305 21.636719 20.5 L 13.222656 12.044922 L 21.636719 3.5917969 C 21.999768 3.2275766 21.999768 2.6794554 21.636719 2.3164062 A 0.87248906 0.87248906 0 0 0 20.992188 2.0449219 A 0.87248906 0.87248906 0 0 0 20.369141 2.3164062 L 11.955078 10.771484 L 3.5390625 2.3164062 A 0.87248906 0.87248906 0 0 0 2.8945312 2.0449219 z"/></svg>