<svg xmlns="http://www.w3.org/2000/svg" viewBox="0 0 24 24"><path d="M 12 2 A 9.9997632 9.9997632 0 0 0 2 12 A 9.9997632 9.9997632 0 0 0 12 22 A 9.9997632 9.9997632 0 0 0 22 12 A 9.9997632 9.9997632 0 0 0 12 2 z M 13.015625 6.4394531 C 13.720123 6.4394531 14.416016 6.4936686 14.416016 6.5175781 L 14.416016 8.1074219 L 13.605469 8.1074219 C 12.805332 8.1074219 12.791016 8.6753291 12.791016 9.2480469 L 12.791016 10.332031 L 14.556641 10.332031 L 14.310547 12.556641 L 12.791016 12.556641 L 12.791016 17.560547 L 10.623047 17.560547 L 10.623047 12.556641 L 8.9980469 12.556641 L 8.9980469 10.332031 L 10.623047 10.332031 L 10.623047 9.0527344 C 10.623047 7.3607145 11.544352 6.4394531 13.015625 6.4394531 z"/></svg>