<svg xmlns="http://www.w3.org/2000/svg" viewBox="0 0 24 24"><path d="M 16.863281 3.9316406 C 15.245573 3.889213 13.683414 4.6646866 12.585938 5.8300781 C 12.13251 6.6652122 11.378781 6.2394975 10.957031 5.6445312 C 9.6100166 4.2642614 7.5230701 3.5916805 5.6445312 4.1171875 C 3.8472432 4.5775657 2.421193 6.1473908 2.109375 7.9707031 C 1.7189516 10.132261 2.4195087 12.414294 3.8066406 14.097656 C 5.2352063 15.858233 7.0709908 17.234892 8.796875 18.685547 C 10.282356 19.847131 12.426552 20.067881 14.109375 19.212891 C 15.266525 18.638771 16.136443 17.634322 17.152344 16.853516 C 18.801219 15.423006 20.501462 13.87872 21.277344 11.777344 C 21.9549 9.9320976 21.999844 7.7114767 20.839844 6.0449219 C 19.959539 4.7462991 18.423292 3.9600369 16.863281 3.9316406 z"/></svg>