<svg xmlns="http://www.w3.org/2000/svg" viewBox="0 0 24 24"><path d="M 16.929688 4.0644531 C 15.324538 4.0298449 13.619359 4.7349152 12.304688 6.3535156 A 0.49997676 0.49997676 0 0 1 11.914062 6.5351562 A 0.48807255 0.48807255 0 0 1 11.535156 6.359375 C 8.0204387 2.0609637 1.8134389 4.2027509 2.0039062 9.4921875 C 2.1556849 13.701317 5.1405714 15.786906 8.6542969 18.746094 A 5.078137 5.078137 0 0 0 11.929688 19.935547 C 13.100268 19.935547 14.272489 19.536855 15.210938 18.738281 C 18.685974 15.782069 21.630652 13.711243 21.832031 9.6171875 C 21.999433 6.2375083 19.604938 4.1221335 16.929688 4.0644531 z M 7.0253906 5.9785156 C 8.0253442 5.990269 9.1029981 6.4791232 9.9746094 7.5449219 A 2.4899636 2.4899636 0 0 0 11.914062 8.4472656 C 12.682876 8.4472656 13.394025 8.1135333 13.865234 7.5332031 C 16.136954 4.7357141 20.02718 5.9263516 19.849609 9.5253906 C 19.690887 12.726631 17.334816 14.38022 13.896484 17.304688 A 3.0365652 3.0365652 0 0 1 11.929688 18.021484 A 3.0752539 3.0752539 0 0 1 9.9394531 17.291016 C 6.3741427 14.287186 4.1053394 12.694479 3.9882812 9.4257812 C 3.9095399 7.2638034 5.3588015 5.9589272 7.0253906 5.9785156 z"/></svg>