<svg xmlns="http://www.w3.org/2000/svg" viewBox="0 0 24 24"><path d="M 11.964844 2 A 2.1063158 2.1063158 0 0 0 10.505859 2.6132812 L 3.8886719 9.2089844 A 1.0526316 1.0526316 0 0 0 3.578125 9.9550781 L 3.578125 20.119141 C 3.578125 21.282299 4.5204359 22 5.6835938 22 L 8.8417969 22 C 10.004955 22 10.947266 21.282299 10.947266 20.119141 L 10.947266 19.066406 A 1.0526316 1.0526316 0 0 1 13.052734 19.066406 L 13.052734 20.119141 C 13.052734 21.282299 13.995045 22 15.158203 22 L 18.316406 22 C 19.479564 22 20.421875 21.282299 20.421875 20.119141 L 20.421875 10.025391 C 20.421875 9.7464433 20.311024 9.4810979 20.115234 9.2832031 L 13.484375 2.6210938 A 2.1063158 2.1063158 0 0 0 11.964844 2 z M 12.003906 4.4921875 A 1.0515789 1.0515789 0 0 1 12.734375 4.8007812 L 18.162109 10.228516 A 0.52947368 0.52947368 0 0 1 18.316406 10.599609 L 18.316406 19.066406 C 18.316406 19.647459 17.844725 19.894531 17.263672 19.894531 L 16.210938 19.894531 C 15.629885 19.894531 15.158203 19.647459 15.158203 19.066406 L 15.158203 18.013672 C 15.158203 16.850514 14.215892 15.683594 13.052734 15.683594 L 10.947266 15.683594 C 9.7841077 15.683594 8.8417969 16.850514 8.8417969 18.013672 L 8.8417969 19.066406 C 8.8417969 19.647459 8.3701151 19.894531 7.7890625 19.894531 L 6.7363281 19.894531 C 6.1552755 19.894531 5.6835938 19.647459 5.6835938 19.066406 L 5.6835938 10.578125 C 5.6835938 10.438125 5.7399955 10.304025 5.8378906 10.205078 L 11.246094 4.8007812 A 1.0515789 1.0515789 0 0 1 12.003906 4.4921875 z"/></svg>