<svg xmlns="http://www.w3.org/2000/svg" viewBox="0 0 24 24"><path d="M 12.017578 2.0175781 A 9.9824176 9.9824176 0 0 0 2.0351562 12 A 9.9824176 9.9824176 0 0 0 12.017578 21.982422 A 9.9824176 9.9824176 0 0 0 22 12 A 9.9824176 9.9824176 0 0 0 12.017578 2.0175781 z M 12.818359 6.453125 C 15.487325 6.4968497 16.07706 6.888881 16.597656 7.4082031 C 17.455243 8.2641247 17.715039 9.3343637 17.490234 14.265625 C 17.464146 14.852336 17.370923 15.250757 17.234375 15.601562 C 16.4656 17.569848 14.642549 17.691334 9.7246094 17.46875 C 9.1362329 17.442107 8.7361263 17.349438 8.3847656 17.212891 A 2.7975638 2.7975638 0 0 1 6.7695312 15.601562 C 6.3382402 14.495859 6.4861855 10.280504 6.5117188 9.7226562 C 6.5527941 8.828435 6.7718027 8.0409856 7.40625 7.4082031 C 8.0384771 6.7787512 8.8209519 6.5586535 9.7246094 6.5175781 C 10.398814 6.4864941 11.001644 6.4668771 11.541016 6.4570312 C 12.012966 6.448416 12.437079 6.4468784 12.818359 6.453125 z M 11.304688 7.4316406 C 9.0282582 7.4407732 8.5235976 7.6959855 8.109375 8.109375 C 7.663097 8.5556541 7.5347231 9.1347953 7.5058594 9.7675781 C 7.4764405 10.413681 7.3678199 14.404316 7.6953125 15.244141 A 1.80676 1.80676 0 0 0 8.7441406 16.289062 C 8.938971 16.364552 9.2311112 16.454092 9.7695312 16.478516 C 14.657497 16.702765 15.809029 16.525247 16.308594 15.244141 C 16.384084 15.049865 16.473624 14.758013 16.498047 14.220703 C 16.721186 9.3810287 16.446827 8.6600077 15.894531 8.109375 C 15.447143 7.6642077 14.868267 7.5361212 14.234375 7.5078125 C 13.0196 7.4528604 12.063497 7.4285964 11.304688 7.4316406 z M 14.904297 8.390625 A 0.66331126 0.66331126 0 0 1 14.931641 8.390625 A 0.66331126 0.66331126 0 0 1 15.615234 9.0527344 A 0.66348472 0.66348472 0 0 1 14.287109 9.0527344 A 0.66331126 0.66331126 0 0 1 14.904297 8.390625 z M 12.001953 9.1640625 A 2.8319783 2.8319783 0 0 1 14.837891 11.994141 A 2.8325334 2.8325334 0 0 1 12.001953 14.822266 A 2.8325334 2.8325334 0 0 1 9.1660156 11.994141 A 2.8319783 2.8319783 0 0 1 12.001953 9.1640625 z M 12.001953 10.15625 A 1.8389541 1.8389541 0 0 0 10.162109 11.994141 A 1.8389541 1.8389541 0 0 0 12.001953 13.832031 A 1.8389541 1.8389541 0 0 0 13.84375 11.994141 A 1.8389541 1.8389541 0 0 0 12.001953 10.15625 z"/></svg>