<svg xmlns="http://www.w3.org/2000/svg" viewBox="0 0 24 24"><path d="M 8.0957031 2.3359375 C 6.5736126 2.2689303 5.0421257 2.7671684 3.8632812 3.8769531 A 5.9130565 5.9130565 0 0 0 3.734375 12.369141 L 4.4296875 13.064453 A 0.986443 0.986443 0 0 0 5.8261719 11.671875 L 5.1269531 10.974609 A 3.9494427 3.9494427 0 0 1 5.7734375 4.8730469 C 7.3439422 3.8366683 9.4551746 4.1485125 10.787109 5.4785156 L 11.402344 6.09375 A 0.98644329 0.98644329 0 0 0 12.798828 4.7011719 L 12.275391 4.1796875 C 11.129869 3.0346485 9.6177936 2.4029447 8.0957031 2.3359375 z M 7.2363281 6.5332031 A 0.98711921 0.98711921 0 0 0 6.5214844 8.1875 L 15.466797 17.128906 A 0.98711921 0.98711921 0 0 0 16.861328 15.734375 L 7.9179688 6.7910156 A 0.98711921 0.98711921 0 0 0 7.2363281 6.5332031 z M 18.242188 10.568359 A 0.98553064 0.98553064 0 0 0 17.558594 12.248047 L 18.175781 12.867188 C 19.50675 14.197191 19.817629 16.306448 18.78125 17.876953 A 3.9523403 3.9523403 0 0 1 12.677734 18.523438 L 11.980469 17.826172 A 0.98587198 0.98587198 0 0 0 10.587891 19.21875 L 11.283203 19.914062 A 5.91692 5.91692 0 0 0 19.759766 19.804688 C 22.000584 17.446033 21.756746 13.658124 19.455078 11.357422 L 18.953125 10.855469 A 0.98553064 0.98553064 0 0 0 18.242188 10.568359 z"/></svg>