<svg xmlns="http://www.w3.org/2000/svg" viewBox="0 0 24 24"><path d="M 4 2 A 1.9998426 1.9998426 0 0 0 2 4 L 2 9 A 0.99992132 0.99992132 0 0 0 4 9 L 4 5 A 0.99992132 0.99992132 0 0 1 5 4 L 19 4 A 0.99992132 0.99992132 0 0 1 20 5 L 20 18.998047 A 0.99992132 0.99992132 0 0 1 19 19.998047 L 15 19.998047 A 0.99992132 0.99992132 0 0 0 15 21.998047 L 20 21.998047 A 1.9998426 1.9998426 0 0 0 22 19.998047 L 22 4 A 1.9998426 1.9998426 0 0 0 20 2 L 4 2 z M 10.011719 13.001953 A 1.0109205 1.0109205 0 0 0 9.9335938 13.003906 A 1.0109205 1.0109205 0 0 0 9.6386719 13.064453 L 3.4316406 15.347656 A 1.0099205 1.0099205 0 0 0 3.0664062 17.009766 L 4.296875 18.240234 L 2.296875 20.238281 A 1.0099205 1.0099205 0 0 0 2.296875 21.667969 L 2.3300781 21.703125 A 1.0099205 1.0099205 0 0 0 3.7597656 21.703125 L 5.7597656 19.703125 L 6.9882812 20.933594 A 1.0099205 1.0099205 0 0 0 8.6523438 20.568359 L 10.935547 14.363281 A 1.0109205 1.0109205 0 0 0 10.011719 13.001953 z"/></svg>