<svg xmlns="http://www.w3.org/2000/svg" viewBox="0 0 24 24"><path d="M 12 2 A 6.0001578 6.0001578 0 0 0 6 8 C 6 9.8902853 6.8751482 11.574136 8.2421875 12.673828 C 4.5821586 14.047602 2 17.444325 2 22 L 4 22 C 4 16.999869 7.5891099 14 12 14 C 16.41089 14 20 16.999869 20 22 L 22 22 C 22 17.444998 19.417168 14.048275 15.757812 12.673828 A 5.9833223 5.9833223 0 0 0 18 8 A 6.0001578 6.0001578 0 0 0 12 2 z M 12 4.2226562 A 4.0782217 4.0782217 0 0 1 16.074219 8.296875 A 4.0782217 4.0782217 0 0 1 12 12.371094 A 4.0782217 4.0782217 0 0 1 7.9257812 8.296875 A 4.0782217 4.0782217 0 0 1 12 4.2226562 z"/></svg>