<svg xmlns="http://www.w3.org/2000/svg" viewBox="0 0 24 24"><path d="M 10.626953 2.0039062 A 8.886083 8.886083 0 0 0 10.886719 19.771484 A 8.7978457 8.7978457 0 0 0 16.330078 17.896484 L 20.095703 21.671875 A 1.1106133 1.1106133 0 0 0 21.671875 21.671875 A 1.1106133 1.1106133 0 0 0 21.671875 20.095703 L 17.894531 16.330078 A 8.7978457 8.7978457 0 0 0 19.771484 10.886719 A 8.886083 8.886083 0 0 0 10.626953 2.0039062 z M 11.011719 4.3554688 A 6.4707343 6.4707343 0 0 1 17.294922 10.824219 A 6.4707343 6.4707343 0 0 1 4.3535156 10.824219 A 6.4707343 6.4707343 0 0 1 11.011719 4.3554688 z"/></svg>