<svg xmlns="http://www.w3.org/2000/svg" viewBox="0 0 24 24"><path d="M 11.970703 2 A 1 1 0 0 0 11 3 L 11 4.65625 A 0.501 0.501 0 0 1 10.589844 5.1425781 A 6.949 6.949 0 0 0 8.1484375 6.1542969 A 0.5 0.5 0 0 1 7.5136719 6.0996094 L 6.34375 4.9296875 A 0.99989318 0.99989318 0 1 0 4.9296875 6.34375 L 6.0996094 7.5136719 A 0.49 0.49 0 0 1 6.1542969 8.1484375 C 5.6602969 8.8314375 5.3431719 9.5618437 5.2011719 10.839844 C 5.1741724 11.078844 4.89725 11 4.65625 11 L 3 11 A 1 1 0 0 0 3 13 L 4.65625 13 C 4.89725 13 5.1883281 13.08727 5.2363281 13.322266 C 5.4173281 14.209266 5.6732969 14.871562 6.1542969 15.601562 C 6.2872969 15.802563 6.2696089 16.191328 6.0996094 16.361328 L 4.9296875 17.59375 A 1.038 1.038 0 0 0 4.9296875 19.039062 A 1 1 0 0 0 6.34375 19.054688 L 7.5136719 17.892578 A 0.5 0.5 0 0 1 8.1484375 17.841797 A 6.97 6.97 0 0 0 10.589844 18.855469 C 10.825844 18.904464 11 19.10275 11 19.34375 L 11 21 A 1 1 0 0 0 13 21 L 13 19.34375 C 13 19.10275 13.174156 18.906422 13.410156 18.857422 A 6.967 6.967 0 0 0 15.851562 17.845703 A 0.5 0.5 0 0 1 16.486328 17.900391 L 17.65625 19.070312 A 0.99989283 0.99989283 0 1 0 19.070312 17.65625 L 17.900391 16.486328 A 0.5 0.5 0 0 1 17.845703 15.851562 C 18.326703 15.121562 18.588422 14.714156 18.857422 13.910156 C 18.934424 13.682154 19.10275 13 19.34375 13 L 21 13 A 1 1 0 0 0 21 11 L 19.34375 11 C 19.10275 11 18.771438 10.983187 18.773438 10.742188 C 18.778437 9.8531875 18.487703 8.5904375 17.845703 7.8984375 C 17.681703 7.7214375 17.730389 7.5586719 17.900391 7.3886719 L 19.070312 6.28125 A 0.962 0.962 0 0 0 19.070312 4.8984375 A 1 1 0 0 0 17.65625 4.9121094 L 16.486328 6.0917969 A 0.502 0.502 0 0 1 15.851562 6.1503906 A 6.947 6.947 0 0 0 13.410156 5.140625 A 0.499 0.499 0 0 1 13 4.65625 L 13 3 A 1 1 0 0 0 11.970703 2 z M 12.130859 6.9980469 A 5.017 5.017 0 0 1 16.820312 13.357422 A 4.934 4.934 0 0 1 13.357422 16.820312 A 5.017 5.017 0 0 1 7.1796875 10.642578 A 4.934 4.934 0 0 1 10.642578 7.1796875 A 5.017 5.017 0 0 1 12.130859 6.9980469 z M 12.029297 11 A 1 1 0 0 0 11 12 A 1 1 0 0 0 13 12 A 1 1 0 0 0 12.029297 11 z"/></svg>