<svg xmlns="http://www.w3.org/2000/svg" viewBox="0 0 24 24"><path d="M 12 2 L 8.875 6 L 10.958984 6 L 10.958984 15 L 13.041016 15 L 13.041016 6 L 15.125 6 L 12 2 z M 4.7089844 9 C 4.1345399 9 3.6660156 9.4477777 3.6660156 10 L 3.6660156 21 C 3.6660156 21.552222 4.1334288 22 4.7089844 22 L 19.291016 22 C 19.866571 22 20.333984 21.552222 20.333984 21 L 20.333984 10 C 20.333984 9.4477778 19.866571 9.0000001 19.291016 9 L 16.166016 9 L 16.166016 11 L 18.25 11 L 18.25 20 L 5.75 20 L 5.75 11 L 7.8339844 11 L 7.8339844 9 L 4.7089844 9 z"/></svg>