<svg xmlns="http://www.w3.org/2000/svg" viewBox="0 0 24 24"><path d="M 14.773438 2.0097656 C 14.230576 2.0668867 13.715411 2.4378164 13.429688 2.9804688 C 13.415257 3.0093226 13.398276 3.0452045 13.376953 3.0878906 C 12.849461 4.1437323 10.295207 9.2557745 9.7734375 9.7773438 C 9.230576 10.31999 8.5148438 10.576172 7.7148438 10.576172 L 7.7148438 22 L 17.714844 22 C 18.314844 22 18.830132 21.627435 19.058594 21.113281 C 19.058594 21.113281 22 12.803599 22 12.003906 C 22 11.204214 21.372266 10.576172 20.572266 10.576172 L 16.287109 10.576172 C 15.487109 10.576172 14.857422 9.8624529 14.857422 9.1484375 C 14.857422 8.4344221 15.972603 4.6351474 16.201172 3.8925781 C 16.441187 3.1520672 16.047807 2.3554762 15.314453 2.09375 C 15.286022 2.0856325 15.258868 2.0762311 15.232422 2.0683594 C 15.072791 2.0208403 14.945022 1.9852638 14.773438 2.0097656 z M 2 10.576172 L 2 22 L 4.8574219 22 L 4.8574219 10.576172 L 2 10.576172 z"/></svg>