<svg xmlns="http://www.w3.org/2000/svg" viewBox="0 0 24 24"><path d="M 17.957031 2 L 2.03125 9.5117188 L 2.0332031 9.515625 L 2.0136719 9.515625 L 2.0136719 14.197266 L 2.7949219 14.197266 C 3.6557098 14.197266 4.3535156 14.897024 4.3535156 15.757812 C 4.3535156 16.617607 3.6557098 17.318359 2.7949219 17.318359 L 2.0117188 17.318359 L 2.0117188 22 L 21.988281 22 L 21.988281 17.318359 L 21.207031 17.318359 C 20.346243 17.318359 19.648437 16.617607 19.648438 15.757812 C 19.648438 14.897024 20.346243 14.197266 21.207031 14.197266 L 21.207031 14.195312 L 21.988281 14.195312 L 21.988281 9.515625 L 19.998047 9.515625 A 1.559557 1.559557 0 0 1 19.279297 6.5703125 L 19.945312 6.2226562 L 17.957031 2 z M 17.208984 4.078125 L 17.931641 5.6152344 A 3.1111622 3.1111622 0 0 0 16.875 7.9550781 C 16.875 8.5226416 17.030488 9.0554115 17.296875 9.515625 L 5.6816406 9.515625 L 12.630859 6.2382812 L 12.632812 6.2382812 A 0.77940948 0.77940948 0 0 0 14.041016 5.5722656 L 17.208984 4.078125 z M 14.339844 7.0371094 A 0.99398154 0.99398154 0 0 0 13.345703 8.03125 A 0.99398154 0.99398154 0 0 0 14.339844 9.0253906 A 0.99398154 0.99398154 0 0 0 15.333984 8.03125 A 0.99398154 0.99398154 0 0 0 14.339844 7.0371094 z M 3.5742188 11.076172 L 15.355469 11.076172 A 0.78043057 0.78043057 0 1 0 16.916016 11.076172 L 20.425781 11.076172 L 20.425781 12.736328 A 3.1270659 3.1270659 0 0 0 18.087891 15.755859 A 3.1270659 3.1270659 0 0 0 20.425781 18.779297 L 20.425781 20.439453 L 16.916016 20.439453 A 0.78043057 0.78043057 0 1 0 15.355469 20.439453 L 3.5742188 20.439453 L 3.5742188 18.779297 A 3.1270659 3.1270659 0 0 0 5.9140625 15.757812 A 3.1270659 3.1270659 0 0 0 3.5742188 12.736328 L 3.5742188 11.076172 z M 16.136719 12.423828 A 0.99398154 0.99398154 0 0 0 15.142578 13.417969 A 0.99398154 0.99398154 0 0 0 16.136719 14.412109 A 0.99398154 0.99398154 0 0 0 17.130859 13.417969 A 0.99398154 0.99398154 0 0 0 16.136719 12.423828 z M 16.136719 14.761719 A 0.99398154 0.99398154 0 0 0 15.142578 15.755859 A 0.99398154 0.99398154 0 0 0 16.136719 16.75 A 0.99398154 0.99398154 0 0 0 17.130859 15.755859 A 0.99398154 0.99398154 0 0 0 16.136719 14.761719 z M 16.136719 17.103516 A 0.99398154 0.99398154 0 0 0 15.142578 18.097656 A 0.99398154 0.99398154 0 0 0 16.136719 19.091797 A 0.99398154 0.99398154 0 0 0 17.130859 18.097656 A 0.99398154 0.99398154 0 0 0 16.136719 17.103516 z"/></svg>