<svg xmlns="http://www.w3.org/2000/svg" viewBox="0 0 24 24"><path d="M 12 2 C 6.475 2 2 6.475 2 12 C 2 17.525 6.475 22 12 22 C 17.525 22 22 17.525 22 12 C 22 6.475 17.525 2 12 2 z M 14.615234 7.7246094 C 15.310234 7.7246094 15.935 8.014375 16.375 8.484375 C 16.925 8.374375 17.439297 8.1753906 17.904297 7.9003906 C 17.724297 8.4653906 17.345703 8.934375 16.845703 9.234375 C 17.335703 9.174375 17.800469 9.0454688 18.230469 8.8554688 C 17.905469 9.3404687 17.495391 9.7654687 17.025391 10.105469 C 17.030391 10.205469 17.029297 10.309062 17.029297 10.414062 C 17.029297 13.599063 14.604922 17.275391 10.169922 17.275391 C 8.8099219 17.275391 7.539375 16.875547 6.484375 16.185547 C 6.674375 16.210547 6.8655469 16.220703 7.0605469 16.220703 C 8.1905469 16.220703 9.2296875 15.834453 10.054688 15.189453 C 8.9996875 15.169453 8.1096875 14.475625 7.8046875 13.515625 C 7.9546875 13.545625 8.1047656 13.560547 8.2597656 13.560547 C 8.4797656 13.560547 8.6945312 13.529609 8.8945312 13.474609 C 7.7895313 13.249609 6.9609375 12.279375 6.9609375 11.109375 L 6.9609375 11.080078 C 7.2859375 11.260078 7.6557813 11.370859 8.0507812 11.380859 C 7.4007813 10.950859 6.9746094 10.21 6.9746094 9.375 C 6.9746094 8.935 7.0957813 8.5190625 7.3007812 8.1640625 C 8.4907812 9.6240625 10.264531 10.585547 12.269531 10.685547 C 12.224531 10.510547 12.205078 10.324766 12.205078 10.134766 C 12.205078 8.8047656 13.285234 7.7246094 14.615234 7.7246094 z"/></svg>